<svg width="170" height="130" viewBox="0 0 170 130" fill="none" xmlns="http://www.w3.org/2000/svg">
<path d="M152.774 80.1926C148.505 129.292 99.4056 127.767 99.4056 127.158C99.4056 126.906 91.2884 127.538 81.7169 124.778L7 110.994L51.2209 80.1926C50.8794 51.6821 66.6456 37.2384 81.7169 30.8218C80.3953 21.1532 81.3509 2.06013 95.7453 3.03603C110.14 4.01192 113.942 20.9586 114.043 29.3099C114.348 20.7552 118.74 4.49958 133.866 7.91521C148.993 11.3308 144.235 33.7357 139.966 44.5112C146.776 35.8707 159.802 26.2342 165.278 34.4473C171.987 44.5112 161.618 56.2016 152.774 67.0788V80.1926Z" fill="white"/>
<path d="M51.2209 80.1926C50.8794 51.6821 66.6456 37.2384 81.7169 30.8218M51.2209 80.1926L7 110.994L81.7169 124.778M51.2209 80.1926C51.5789 110.085 68.1161 120.857 81.7169 124.778M81.7169 30.8218C80.3953 21.1532 81.3509 2.06013 95.7453 3.03603C110.14 4.01192 113.942 20.9586 114.043 29.3099C114.348 20.7552 118.74 4.49958 133.866 7.91521C148.993 11.3308 144.235 33.7357 139.966 44.5112C146.776 35.8707 159.802 26.2342 165.278 34.4473C171.987 44.5112 161.618 56.2016 152.774 67.0788M81.7169 30.8218C99.3033 25.5243 138.136 25.3593 152.774 67.0788M152.774 67.0788V80.1926C148.505 129.292 99.4056 127.767 99.4056 127.158C99.4056 126.906 91.2884 127.538 81.7169 124.778M74.7026 61.8943V75.3129" stroke="#C99D6C" stroke-width="5"/>
</svg>
