<svg width="190" height="150" viewBox="0 0 190 150" fill="none" xmlns="http://www.w3.org/2000/svg">
<g filter="url(#filter0_d_130_42)">
<path d="M162.774 85.1926C158.505 134.292 109.406 132.767 109.406 132.158C109.406 131.906 101.288 132.538 91.7169 129.778L17 115.994L61.2209 85.1926C60.8794 56.6821 76.6456 42.2384 91.7169 35.8218C90.3953 26.1532 91.3509 7.06013 105.745 8.03603C120.14 9.01192 123.942 25.9586 124.043 34.3099C124.348 25.7552 128.74 9.49958 143.866 12.9152C158.993 16.3308 154.235 38.7357 149.966 49.5112C156.776 40.8707 169.802 31.2342 175.278 39.4473C181.987 49.5112 171.618 61.2016 162.774 72.0788V85.1926Z" fill="white"/>
<path d="M61.2209 85.1926C60.8794 56.6821 76.6456 42.2384 91.7169 35.8218M61.2209 85.1926L17 115.994L91.7169 129.778M61.2209 85.1926C61.5789 115.085 78.1161 125.857 91.7169 129.778M91.7169 35.8218C90.3953 26.1532 91.3509 7.06013 105.745 8.03603C120.14 9.01192 123.942 25.9586 124.043 34.3099C124.348 25.7552 128.74 9.49958 143.866 12.9152C158.993 16.3308 154.235 38.7357 149.966 49.5112C156.776 40.8707 169.802 31.2342 175.278 39.4473C181.987 49.5112 171.618 61.2016 162.774 72.0788M91.7169 35.8218C109.303 30.5243 148.136 30.3593 162.774 72.0788M162.774 72.0788V85.1926C158.505 134.292 109.406 132.767 109.406 132.158C109.406 131.906 101.288 132.538 91.7169 129.778M84.7026 66.8943V80.3129" stroke="#C99D6C" stroke-width="5"/>
</g>
<defs>
<filter id="filter0_d_130_42" x="0.65625" y="0.5" width="189.27" height="149.328" filterUnits="userSpaceOnUse" color-interpolation-filters="sRGB">
<feFlood flood-opacity="0" result="BackgroundImageFix"/>
<feColorMatrix in="SourceAlpha" type="matrix" values="0 0 0 0 0 0 0 0 0 0 0 0 0 0 0 0 0 0 127 0" result="hardAlpha"/>
<feOffset dy="5"/>
<feGaussianBlur stdDeviation="5"/>
<feComposite in2="hardAlpha" operator="out"/>
<feColorMatrix type="matrix" values="0 0 0 0 0.0834167 0 0 0 0 0.235363 0 0 0 0 0.320833 0 0 0 0.64 0"/>
<feBlend mode="normal" in2="BackgroundImageFix" result="effect1_dropShadow_130_42"/>
<feBlend mode="normal" in="SourceGraphic" in2="effect1_dropShadow_130_42" result="shape"/>
</filter>
</defs>
</svg>
