<svg width="210" height="185" viewBox="0 0 210 185" fill="none" xmlns="http://www.w3.org/2000/svg">
<g filter="url(#filter0_d_130_41)">
<path d="M126.031 162.448C112.369 171.475 94.1122 166.209 86.6917 162.448C85.1934 157.723 83.1833 153.335 80.9146 149.029C71.9893 132.092 59.0605 116.431 57.536 86.5112C46.3132 86.5112 22.6478 86.0843 17.7683 84.3765C12.8889 82.6687 12.6856 78.3788 13.1938 76.4473C20.0251 75.2275 46.2311 70.2463 58.4801 67.9083C58.6034 67.289 58.7366 66.6791 58.8792 66.0785C38.8257 56.5635 39.991 22.0616 43.0803 6C42.1044 33.0811 63.0048 41.3107 73.5769 42.0403C82.8125 34.2788 93.9799 31.0229 101.33 30.3973C114.021 30.3973 124.704 35.15 132.788 42.0403C141.616 38.4643 159.945 26.2498 162.628 6C163.799 17.4871 162.618 45.5847 148.526 66.0785C148.698 66.6909 148.853 67.3012 148.992 67.9083L196.48 76.4473C197.089 78.3788 196.724 82.6687 190.38 84.3765C187.122 85.2536 179.116 85.7929 170.557 86.1099L173.302 94.4404H180.621L187.636 113.958L173.302 116.703L167.203 98.1L173.302 94.4404L170.557 86.1099C162.451 86.4102 153.849 86.5112 148.314 86.5112C144.981 102.758 136.857 129.404 130.481 149.029C128.846 154.062 127.326 158.633 126.031 162.448Z" fill="white"/>
<path d="M73.5769 42.0403C82.8125 34.2788 93.9799 31.0229 101.33 30.3973C114.021 30.3973 124.704 35.15 132.788 42.0403M73.5769 42.0403C63.0048 41.3107 42.1044 33.0811 43.0803 6C39.991 22.0616 38.8257 56.5635 58.8792 66.0785M73.5769 42.0403C67.0154 47.5546 61.4289 55.3432 58.8792 66.0785M58.8792 66.0785C58.7366 66.6791 58.6034 67.289 58.4801 67.9083M58.4801 67.9083C57.8603 71.0217 57.4899 74.3714 57.4149 77.9722C57.3529 80.9446 57.3972 83.787 57.536 86.5112M58.4801 67.9083C46.2311 70.2463 20.0251 75.2275 13.1938 76.4473C12.6856 78.3788 12.8889 82.6687 17.7683 84.3765C22.6478 86.0843 46.3132 86.5112 57.536 86.5112M57.536 86.5112C59.0605 116.431 71.9893 132.092 80.9146 149.029M132.788 42.0403C141.616 38.4643 159.945 26.2498 162.628 6C163.799 17.4871 162.618 45.5847 148.526 66.0785M132.788 42.0403C140.735 48.815 146.169 57.6562 148.526 66.0785M148.526 66.0785C148.698 66.6909 148.853 67.3012 148.992 67.9083M148.992 67.9083C149.667 70.8668 149.951 73.75 149.819 76.4473C149.696 78.9452 149.159 82.3943 148.314 86.5112M148.992 67.9083L196.48 76.4473C197.089 78.3788 196.724 82.6687 190.38 84.3765C187.122 85.2536 179.116 85.7929 170.557 86.1099M148.314 86.5112C144.981 102.758 136.857 129.404 130.481 149.029M148.314 86.5112C153.849 86.5112 162.451 86.4102 170.557 86.1099M80.9146 149.029C83.1833 153.335 85.1934 157.723 86.6917 162.448C94.1122 166.209 112.369 171.475 126.031 162.448C127.326 158.633 128.846 154.062 130.481 149.029M80.9146 149.029C89.669 138.051 111.839 122.68 130.481 149.029M170.557 86.1099L173.302 94.4404M173.302 94.4404L167.203 98.1L173.302 116.703L187.636 113.958L180.621 94.4404H173.302Z" stroke="#C99D6C" stroke-width="5"/>
<path d="M125.234 80.4121V97.4903" stroke="#C99D6C" stroke-width="5"/>
<path d="M81.9258 80.4121V97.4903" stroke="#C99D6C" stroke-width="5"/>
</g>
<defs>
<filter id="filter0_d_130_41" x="0.503906" y="0.527344" width="208.684" height="184.404" filterUnits="userSpaceOnUse" color-interpolation-filters="sRGB">
<feFlood flood-opacity="0" result="BackgroundImageFix"/>
<feColorMatrix in="SourceAlpha" type="matrix" values="0 0 0 0 0 0 0 0 0 0 0 0 0 0 0 0 0 0 127 0" result="hardAlpha"/>
<feOffset dy="5"/>
<feGaussianBlur stdDeviation="5"/>
<feComposite in2="hardAlpha" operator="out"/>
<feColorMatrix type="matrix" values="0 0 0 0 0.0834167 0 0 0 0 0.235363 0 0 0 0 0.320833 0 0 0 0.64 0"/>
<feBlend mode="normal" in2="BackgroundImageFix" result="effect1_dropShadow_130_41"/>
<feBlend mode="normal" in="SourceGraphic" in2="effect1_dropShadow_130_41" result="shape"/>
</filter>
</defs>
</svg>
