<svg width="190" height="165" viewBox="0 0 190 165" fill="none" xmlns="http://www.w3.org/2000/svg">
<path d="M116.031 157.448C102.369 166.475 84.1122 161.209 76.6917 157.448C75.1934 152.723 73.1833 148.335 70.9146 144.029C61.9893 127.092 49.0605 111.431 47.536 81.5112C36.3132 81.5112 12.6478 81.0843 7.76834 79.3765C2.88887 77.6687 2.68556 73.3788 3.19384 71.4473C10.0251 70.2275 36.2311 65.2463 48.4801 62.9083C48.6034 62.289 48.7366 61.6791 48.8792 61.0785C28.8257 51.5635 29.991 17.0616 33.0803 1C32.1044 28.0811 53.0048 36.3107 63.5769 37.0403C72.8125 29.2788 83.9799 26.0229 91.3301 25.3973C104.021 25.3973 114.704 30.15 122.788 37.0403C131.616 33.4643 149.945 21.2498 152.628 1C153.799 12.4871 152.618 40.5847 138.526 61.0785C138.698 61.6909 138.853 62.3012 138.992 62.9083L186.48 71.4473C187.089 73.3788 186.724 77.6687 180.38 79.3765C177.122 80.2536 169.116 80.7929 160.557 81.1099L163.302 89.4404H170.621L177.636 108.958L163.302 111.703L157.203 93.1L163.302 89.4404L160.557 81.1099C152.451 81.4102 143.849 81.5112 138.314 81.5112C134.981 97.7577 126.857 124.404 120.481 144.029C118.846 149.062 117.326 153.633 116.031 157.448Z" fill="white"/>
<path d="M63.5769 37.0403C72.8125 29.2788 83.9799 26.0229 91.3301 25.3973C104.021 25.3973 114.704 30.15 122.788 37.0403M63.5769 37.0403C53.0048 36.3107 32.1044 28.0811 33.0803 1C29.991 17.0616 28.8257 51.5635 48.8792 61.0785M63.5769 37.0403C57.0154 42.5546 51.4289 50.3432 48.8792 61.0785M48.8792 61.0785C48.7366 61.6791 48.6034 62.289 48.4801 62.9083M48.4801 62.9083C47.8603 66.0217 47.4899 69.3714 47.4149 72.9722C47.3529 75.9446 47.3972 78.787 47.536 81.5112M48.4801 62.9083C36.2311 65.2463 10.0251 70.2275 3.19384 71.4473C2.68556 73.3788 2.88887 77.6687 7.76834 79.3765C12.6478 81.0843 36.3132 81.5112 47.536 81.5112M47.536 81.5112C49.0605 111.431 61.9893 127.092 70.9146 144.029M122.788 37.0403C131.616 33.4643 149.945 21.2498 152.628 1C153.799 12.4871 152.618 40.5847 138.526 61.0785M122.788 37.0403C130.735 43.815 136.169 52.6562 138.526 61.0785M138.526 61.0785C138.698 61.6909 138.853 62.3012 138.992 62.9083M138.992 62.9083C139.667 65.8668 139.951 68.75 139.819 71.4473C139.696 73.9452 139.159 77.3943 138.314 81.5112M138.992 62.9083L186.48 71.4473C187.089 73.3788 186.724 77.6687 180.38 79.3765C177.122 80.2536 169.116 80.7929 160.557 81.1099M138.314 81.5112C134.981 97.7577 126.857 124.404 120.481 144.029M138.314 81.5112C143.849 81.5112 152.451 81.4102 160.557 81.1099M70.9146 144.029C73.1833 148.335 75.1934 152.723 76.6917 157.448C84.1122 161.209 102.369 166.475 116.031 157.448C117.326 153.633 118.846 149.062 120.481 144.029M70.9146 144.029C79.669 133.051 101.839 117.68 120.481 144.029M160.557 81.1099L163.302 89.4404M163.302 89.4404L157.203 93.1L163.302 111.703L177.636 108.958L170.621 89.4404H163.302Z" stroke="#C99D6C" stroke-width="5"/>
<path d="M115.234 75.4121V92.4903" stroke="#C99D6C" stroke-width="5"/>
<path d="M71.9258 75.4121V92.4903" stroke="#C99D6C" stroke-width="5"/>
</svg>
