<svg width="210" height="185" viewBox="0 0 210 185" fill="none" xmlns="http://www.w3.org/2000/svg">
<g filter="url(#filter0_d_25_80)">
<path d="M126.027 162.448C112.365 171.475 94.1082 166.209 86.6878 162.448C85.1895 157.723 83.1794 153.335 80.9107 149.029C71.9854 132.092 59.0566 116.431 57.5321 86.5112C46.3093 86.5112 22.6439 86.0843 17.7644 84.3765C12.885 82.6687 12.6817 78.3788 13.1899 76.4473C20.0212 75.2275 46.2272 70.2463 58.4762 67.9083C58.5995 67.289 58.7327 66.6791 58.8753 66.0785C38.8218 56.5635 39.987 22.0616 43.0764 6C42.1005 33.0811 63.0008 41.3107 73.573 42.0403C82.8086 34.2788 93.976 31.0229 101.326 30.3973C114.017 30.3973 124.701 35.15 132.784 42.0403C141.613 38.4643 159.941 26.2498 162.624 6C163.795 17.4871 162.614 45.5847 148.523 66.0785C148.694 66.6909 148.849 67.3012 148.988 67.9083L196.476 76.4473C197.086 78.3788 196.72 82.6687 190.376 84.3765C187.118 85.2536 179.113 85.7929 170.553 86.1099L173.298 94.4404H180.617L187.632 113.958L173.298 116.703L167.199 98.1L173.298 94.4404L170.553 86.1099C162.447 86.4102 153.845 86.5112 148.31 86.5112C144.977 102.758 136.853 129.404 130.477 149.029C128.842 154.062 127.322 158.633 126.027 162.448Z" fill="#8DBEFF"/>
<path d="M73.573 42.0403C82.8086 34.2788 93.976 31.0229 101.326 30.3973C114.017 30.3973 124.701 35.15 132.784 42.0403M73.573 42.0403C63.0008 41.3107 42.1005 33.0811 43.0764 6C39.987 22.0616 38.8218 56.5635 58.8753 66.0785M73.573 42.0403C67.0115 47.5546 61.425 55.3432 58.8753 66.0785M58.8753 66.0785C58.7327 66.6791 58.5995 67.289 58.4762 67.9083M58.4762 67.9083C57.8564 71.0217 57.486 74.3714 57.411 77.9722C57.349 80.9446 57.3933 83.787 57.5321 86.5112M58.4762 67.9083C46.2272 70.2463 20.0212 75.2275 13.1899 76.4473C12.6817 78.3788 12.885 82.6687 17.7644 84.3765C22.6439 86.0843 46.3093 86.5112 57.5321 86.5112M57.5321 86.5112C59.0566 116.431 71.9854 132.092 80.9107 149.029M132.784 42.0403C141.612 38.4643 159.941 26.2498 162.624 6C163.795 17.4871 162.614 45.5847 148.523 66.0785M132.784 42.0403C140.732 48.815 146.166 57.6562 148.523 66.0785M148.523 66.0785C148.694 66.6909 148.849 67.3012 148.988 67.9083M148.988 67.9083C149.663 70.8668 149.947 73.75 149.815 76.4473C149.692 78.9452 149.155 82.3943 148.31 86.5112M148.988 67.9083L196.476 76.4473C197.086 78.3788 196.72 82.6687 190.376 84.3765C187.118 85.2536 179.113 85.7929 170.553 86.1099M148.31 86.5112C144.977 102.758 136.853 129.404 130.477 149.029M148.31 86.5112C153.845 86.5112 162.447 86.4102 170.553 86.1099M80.9107 149.029C83.1794 153.335 85.1895 157.723 86.6878 162.448C94.1082 166.209 112.365 171.475 126.027 162.448C127.322 158.633 128.842 154.062 130.477 149.029M80.9107 149.029C89.6651 138.051 111.835 122.68 130.477 149.029M170.553 86.1099L173.298 94.4404M173.298 94.4404L167.199 98.1L173.298 116.703L187.632 113.958L180.617 94.4404H173.298Z" stroke="#2583B8" stroke-opacity="0.79" stroke-width="5"/>
<path d="M125.227 80.4121V97.4903" stroke="#2583B8" stroke-opacity="0.79" stroke-width="5"/>
<path d="M81.9219 80.4121V97.4903" stroke="#2583B8" stroke-opacity="0.79" stroke-width="5"/>
</g>
<defs>
<filter id="filter0_d_25_80" x="0.5" y="0.527344" width="208.684" height="184.404" filterUnits="userSpaceOnUse" color-interpolation-filters="sRGB">
<feFlood flood-opacity="0" result="BackgroundImageFix"/>
<feColorMatrix in="SourceAlpha" type="matrix" values="0 0 0 0 0 0 0 0 0 0 0 0 0 0 0 0 0 0 127 0" result="hardAlpha"/>
<feOffset dy="5"/>
<feGaussianBlur stdDeviation="5"/>
<feComposite in2="hardAlpha" operator="out"/>
<feColorMatrix type="matrix" values="0 0 0 0 0.0834167 0 0 0 0 0.235363 0 0 0 0 0.320833 0 0 0 0.64 0"/>
<feBlend mode="normal" in2="BackgroundImageFix" result="effect1_dropShadow_25_80"/>
<feBlend mode="normal" in="SourceGraphic" in2="effect1_dropShadow_25_80" result="shape"/>
</filter>
</defs>
</svg>
