<svg width="158" height="151" viewBox="0 0 158 151" fill="none" xmlns="http://www.w3.org/2000/svg">
<path d="M51.1848 143.518C27.5507 136.199 2.83079 119.792 3.00087 87.4758C3.08246 71.974 8.80511 60.2011 17.3334 51.37C13.7755 42.9725 8.79437 21.542 17.3334 3C28.5156 4.87483 52.5266 12.899 59.1139 29.9973C66.5343 28.344 73.5337 27.5578 79.2426 27.3973C86.5698 27.3973 95.2997 28.0563 104.181 29.9973C110.71 22.7263 128.89 7.14755 149.384 3C151.551 11.1543 153.222 32.2443 142.571 51.37C150.047 60.4737 154.873 72.8594 154.873 89.6106C154.873 115.194 136.349 130.641 116.143 139.293C103.012 144.915 89.1721 147.668 79.2426 148.469C71.5149 148.161 61.4523 146.697 51.1848 143.518Z" fill="white"/>
<path d="M51.1848 143.518C27.5507 136.199 2.83079 119.792 3.00087 87.4758C3.08246 71.974 8.80511 60.2011 17.3334 51.37M51.1848 143.518C61.4523 146.697 71.5149 148.161 79.2426 148.469C89.1721 147.668 103.012 144.915 116.143 139.293M51.1848 143.518C44.8821 138.459 36.5463 132.611 41.7308 119.497C48.1351 109.738 56.3692 97.8447 82.5963 97.8447C102.602 97.8447 114.923 112.28 118.582 119.497C120.514 123.037 122.73 131.952 116.143 139.293M116.143 139.293C136.349 130.641 154.873 115.194 154.873 89.6106C154.873 72.8594 150.047 60.4737 142.571 51.37M17.3334 51.37C13.7755 42.9725 8.79437 21.542 17.3334 3C28.5156 4.87483 52.5266 12.899 59.1139 29.9973M17.3334 51.37C28.5556 39.7495 44.6359 33.2229 59.1139 29.9973M59.1139 29.9973C66.5343 28.344 73.5337 27.5578 79.2426 27.3973C86.5698 27.3973 95.2997 28.0563 104.181 29.9973M104.181 29.9973C110.71 22.7263 128.89 7.14755 149.384 3C151.551 11.1543 153.222 32.2443 142.571 51.37M104.181 29.9973C118.259 33.0737 132.716 39.371 142.571 51.37" stroke="#C99D6C" stroke-width="5"/>
<path d="M109.738 75.582V92.6602" stroke="#C99D6C" stroke-width="5"/>
<path d="M48.1328 75.582V92.6602" stroke="#C99D6C" stroke-width="5"/>
</svg>
