<svg width="178" height="171" viewBox="0 0 178 171" fill="none" xmlns="http://www.w3.org/2000/svg">
<g filter="url(#filter0_d_130_43)">
<path d="M61.1848 148.518C37.5507 141.199 12.8308 124.792 13.0009 92.4758C13.0825 76.974 18.8051 65.2011 27.3334 56.37C23.7755 47.9725 18.7944 26.542 27.3334 8C38.5156 9.87483 62.5266 17.899 69.1139 34.9973C76.5343 33.344 83.5337 32.5578 89.2426 32.3973C96.5698 32.3973 105.3 33.0563 114.181 34.9973C120.71 27.7263 138.89 12.1475 159.384 8C161.551 16.1543 163.222 37.2443 152.571 56.37C160.047 65.4737 164.873 77.8594 164.873 94.6106C164.873 120.194 146.349 135.641 126.143 144.293C113.012 149.915 99.1721 152.668 89.2426 153.469C81.5149 153.161 71.4523 151.697 61.1848 148.518Z" fill="white"/>
<path d="M61.1848 148.518C37.5507 141.199 12.8308 124.792 13.0009 92.4758C13.0825 76.974 18.8051 65.2011 27.3334 56.37M61.1848 148.518C71.4523 151.697 81.5149 153.161 89.2426 153.469C99.1721 152.668 113.012 149.915 126.143 144.293M61.1848 148.518C54.8821 143.459 46.5463 137.611 51.7308 124.497C58.1351 114.738 66.3692 102.845 92.5963 102.845C112.602 102.845 124.923 117.28 128.582 124.497C130.514 128.037 132.73 136.952 126.143 144.293M126.143 144.293C146.349 135.641 164.873 120.194 164.873 94.6106C164.873 77.8594 160.047 65.4737 152.571 56.37M27.3334 56.37C23.7755 47.9725 18.7944 26.542 27.3334 8C38.5156 9.87483 62.5266 17.899 69.1139 34.9973M27.3334 56.37C38.5556 44.7495 54.6359 38.2229 69.1139 34.9973M69.1139 34.9973C76.5343 33.344 83.5337 32.5578 89.2426 32.3973C96.5698 32.3973 105.3 33.0563 114.181 34.9973M114.181 34.9973C120.71 27.7263 138.89 12.1475 159.384 8C161.551 16.1543 163.222 37.2443 152.571 56.37M114.181 34.9973C128.259 38.0737 142.716 44.371 152.571 56.37" stroke="#C99D6C" stroke-width="5"/>
<path d="M119.738 80.582V97.6602" stroke="#C99D6C" stroke-width="5"/>
<path d="M97.1719 123.887V138.525" stroke="#C99D6C" stroke-width="5" stroke-linecap="square"/>
<path d="M58.1328 80.582V97.6602" stroke="#C99D6C" stroke-width="5"/>
<path d="M80.7031 123.887V138.525" stroke="#C99D6C" stroke-width="5" stroke-linecap="square"/>
</g>
<defs>
<filter id="filter0_d_130_43" x="0.5" y="0.0820312" width="176.875" height="170.891" filterUnits="userSpaceOnUse" color-interpolation-filters="sRGB">
<feFlood flood-opacity="0" result="BackgroundImageFix"/>
<feColorMatrix in="SourceAlpha" type="matrix" values="0 0 0 0 0 0 0 0 0 0 0 0 0 0 0 0 0 0 127 0" result="hardAlpha"/>
<feOffset dy="5"/>
<feGaussianBlur stdDeviation="5"/>
<feComposite in2="hardAlpha" operator="out"/>
<feColorMatrix type="matrix" values="0 0 0 0 0.0834167 0 0 0 0 0.235363 0 0 0 0 0.320833 0 0 0 0.64 0"/>
<feBlend mode="normal" in2="BackgroundImageFix" result="effect1_dropShadow_130_43"/>
<feBlend mode="normal" in="SourceGraphic" in2="effect1_dropShadow_130_43" result="shape"/>
</filter>
</defs>
</svg>
