<svg width="178" height="171" viewBox="0 0 178 171" fill="none" xmlns="http://www.w3.org/2000/svg">
<g filter="url(#filter0_d_25_82)">
<path d="M61.1809 148.518C37.5468 141.199 12.8269 124.792 12.997 92.4758C13.0786 76.974 18.8012 65.2011 27.3295 56.37C23.7716 47.9725 18.7905 26.542 27.3295 8C38.5117 9.87483 62.5227 17.899 69.11 34.9973C76.5304 33.344 83.5298 32.5578 89.2387 32.3973C96.5658 32.3973 105.296 33.0563 114.177 34.9973C120.706 27.7263 138.886 12.1475 159.38 8C161.547 16.1543 163.218 37.2443 152.567 56.37C160.043 65.4737 164.87 77.8594 164.87 94.6106C164.87 120.194 146.345 135.641 126.139 144.293C113.009 149.915 99.1682 152.668 89.2387 153.469C81.5109 153.161 71.4484 151.697 61.1809 148.518Z" fill="#8DBEFF"/>
<path d="M61.1808 148.518C37.5468 141.199 12.8269 124.792 12.997 92.4758C13.0786 76.974 18.8012 65.2011 27.3295 56.37M61.1808 148.518C71.4484 151.697 81.5109 153.161 89.2387 153.469C99.1682 152.668 113.009 149.915 126.139 144.293M61.1808 148.518C54.8782 143.459 46.5424 137.611 51.7269 124.497C58.1312 114.738 66.3653 102.845 92.5924 102.845C112.598 102.845 124.919 117.28 128.579 124.497C130.51 128.037 132.726 136.952 126.139 144.293M126.139 144.293C146.345 135.641 164.87 120.194 164.87 94.6106C164.87 77.8594 160.043 65.4737 152.567 56.37M27.3295 56.37C23.7716 47.9725 18.7905 26.542 27.3295 8C38.5117 9.87483 62.5227 17.899 69.11 34.9973M27.3295 56.37C38.5517 44.7495 54.632 38.2229 69.11 34.9973M69.11 34.9973C76.5304 33.344 83.5298 32.5578 89.2387 32.3973C96.5658 32.3973 105.296 33.0563 114.177 34.9973M114.177 34.9973C120.706 27.7263 138.886 12.1475 159.38 8C161.547 16.1543 163.218 37.2443 152.567 56.37M114.177 34.9973C128.255 38.0737 142.712 44.371 152.567 56.37" stroke="#2583B8" stroke-opacity="0.79" stroke-width="5"/>
<path d="M119.734 80.582V97.6602" stroke="#2583B8" stroke-opacity="0.79" stroke-width="5"/>
<path d="M97.168 123.888V138.526" stroke="#2583B8" stroke-opacity="0.79" stroke-width="5" stroke-linecap="square"/>
<path d="M58.1289 80.582V97.6602" stroke="#2583B8" stroke-opacity="0.79" stroke-width="5"/>
<path d="M80.6992 123.888V138.526" stroke="#2583B8" stroke-opacity="0.79" stroke-width="5" stroke-linecap="square"/>
</g>
<defs>
<filter id="filter0_d_25_82" x="0.496094" y="0.0830078" width="176.875" height="170.891" filterUnits="userSpaceOnUse" color-interpolation-filters="sRGB">
<feFlood flood-opacity="0" result="BackgroundImageFix"/>
<feColorMatrix in="SourceAlpha" type="matrix" values="0 0 0 0 0 0 0 0 0 0 0 0 0 0 0 0 0 0 127 0" result="hardAlpha"/>
<feOffset dy="5"/>
<feGaussianBlur stdDeviation="5"/>
<feComposite in2="hardAlpha" operator="out"/>
<feColorMatrix type="matrix" values="0 0 0 0 0.0834167 0 0 0 0 0.235363 0 0 0 0 0.320833 0 0 0 0.64 0"/>
<feBlend mode="normal" in2="BackgroundImageFix" result="effect1_dropShadow_25_82"/>
<feBlend mode="normal" in="SourceGraphic" in2="effect1_dropShadow_25_82" result="shape"/>
</filter>
</defs>
</svg>
