<svg width="1440" height="995" viewBox="0 0 1440 995" fill="none" xmlns="http://www.w3.org/2000/svg">
<path d="M736.246 44.8071C489.529 138.479 127.95 83.8369 -22 44.8071V932.22C92.6282 884.845 404.757 818.521 736.246 932.22C1067.73 1045.92 1363.54 979.595 1470 932.22V74.8497C1328.21 25.8058 982.963 -48.8644 736.246 44.8071Z" fill="#70A9FF" fill-opacity="0.5"/>
<path d="M569.995 898.166C1063.76 1007.22 1378.29 940.937 1473.84 894.166L1470.12 31.4112C1286.76 98.728 911.296 187.412 690.72 92.2505C470.144 -2.91068 37.8311 55.0829 -150.753 95.9748L-147.281 901.341C-113.924 854.845 76.2308 789.116 569.995 898.166Z" fill="#70A9FF" fill-opacity="0.5"/>
</svg>
