<svg width="1440" height="484" viewBox="0 0 1440 484" fill="none" xmlns="http://www.w3.org/2000/svg">
<path d="M746.189 28.9107C499.487 89.35 137.932 54.0937 -12.0078 28.9107V601.493C102.613 570.925 414.721 528.131 746.189 601.493C1077.66 674.855 1373.44 632.061 1479.89 601.493V48.295C1338.12 16.6506 992.89 -31.5286 746.189 28.9107Z" fill="#153C52" fill-opacity="0.56"/>
<path d="M579.949 579.52C1073.68 649.882 1388.19 607.117 1483.74 576.939L1480.02 20.2669C1296.66 63.7015 921.228 120.922 700.666 59.522C480.104 -1.87846 47.8194 35.5405 -140.753 61.925L-137.281 581.568C-103.926 551.568 86.2166 509.158 579.949 579.52Z" fill="#153C52" fill-opacity="0.73"/>
</svg>
